#Comment line ignore any data following # character 
#Hierarchical Translation and Rotation (.htr) file 
[Header]	
#Header keywords are followed by a single value 
FileType HTR		#Single word string
DataType HTRS		#Translation followed by rotation and scale data
FileVersion 1		#integer
NumSegments 64		#integer
NumFrames 3		#integer
DataFrameRate 30		#integer, data frame rate in this file
EulerRotationOrder ZYX
CalibrationUnits mm
RotationUnits Degrees
GlobalAxisofGravity Y
BoneLengthAxis Y
ScaleFactor 1.00
[SegmentNames&Hierarchy]
#CHILD	PARENT
Pinger_Root GLOBAL
Pelvis Pinger_Root
L_Hip Pelvis
R_Hip Pelvis
Rear_Leg01 Pelvis
Spine1 Pelvis
L_Leg01 L_Hip
L_Leg02 L_Leg01
L_Leg03 L_Leg02
L_Foot L_Leg03
L_Toe1_01 L_Foot
L_Toe2_01 L_Foot
L_Toe3_01 L_Foot
planeAlignerLeft L_Foot
L_Toe1_02 L_Toe1_01
L_Toe1_03 L_Toe1_02
L_Toe2_02 L_Toe2_01
L_Toe2_03 L_Toe2_02
L_Toe3_02 L_Toe3_01
L_Toe3_03 L_Toe3_02
planeLockWeightLeft planeAlignerLeft
R_Leg01 R_Hip
R_Leg02 R_Leg01
R_Leg03 R_Leg02
R_Foot R_Leg03
planeAlignerRight R_Foot
R_Toe1_01 R_Foot
R_Toe2_01 R_Foot
R_Toe3_01 R_Foot
planeLockWeightRight planeAlignerRight
R_Toe1_02 R_Toe1_01
R_Toe1_03 R_Toe1_02
R_Toe2_02 R_Toe2_01
R_Toe2_03 R_Toe2_02
R_Toe3_02 R_Toe3_01
R_Toe3_03 R_Toe3_02
Rear_Leg02 Rear_Leg01
Rear_Leg03 Rear_Leg02
Rear_Leg04 Rear_Leg03
Rear_Foot Rear_Leg04
planeAlignerCenter Rear_Foot
Rear_Toe1_01 Rear_Foot
Rear_Toe2_01 Rear_Foot
Rear_Toe3_01 Rear_Foot
planeLockWeightCenter planeAlignerCenter
Rear_Toe1_02 Rear_Toe1_01
Rear_Toe1_03 Rear_Toe1_02
Rear_Toe2_02 Rear_Toe2_01
Rear_Toe2_03 Rear_Toe2_02
Rear_Toe3_02 Rear_Toe3_01
Rear_Toe3_03 Rear_Toe3_02
Back_Bone Spine1
Head Spine1
Motor_Bone Back_Bone
Ping_Mechanism Back_Bone
BN_LookIK Head
bottomMouth Head
L_Mouth01 Head
L_mouthFront Head
mouthGun Head
R_Mouth01 Head
R_mouthFront Head
TopMouth Head
weapon_bone Head
[BasePosition]
#SegmentName Tx, Ty, Tz, Rx, Ry, Rz, BoneLength
Pinger_Root 0.000000 0.000000 0.000000 -90.000000 0.000000 0.000000 10.000000 
Pelvis 0.000000 0.000000 0.000000 0.000000 0.000000 0.000000 10.000000 
L_Hip 0.000000 0.000000 0.000000 0.000000 0.000000 0.000000 10.000000 
R_Hip 0.000000 0.000000 0.000000 0.000000 0.000000 0.000000 10.000000 
Rear_Leg01 0.000000 0.000000 0.000000 0.000000 0.000000 0.000000 10.000000 
Spine1 0.000000 0.000000 0.000000 0.000000 0.000000 0.000000 10.000000 
L_Leg01 0.000000 0.000000 0.000000 0.000000 0.000000 0.000000 10.000000 
L_Leg02 0.000000 0.000000 0.000000 0.000000 0.000000 0.000000 10.000000 
L_Leg03 0.000000 0.000000 0.000000 0.000000 0.000000 0.000000 10.000000 
L_Foot 0.000000 0.000000 0.000000 0.000000 0.000000 0.000000 10.000000 
L_Toe1_01 0.000000 0.000000 0.000000 0.000000 0.000000 0.000000 10.000000 
L_Toe2_01 0.000000 0.000000 0.000000 0.000000 0.000000 0.000000 10.000000 
L_Toe3_01 0.000000 0.000000 0.000000 0.000000 0.000000 0.000000 10.000000 
planeAlignerLeft 0.000000 0.000000 0.000000 0.000000 0.000000 0.000000 10.000000 
L_Toe1_02 0.000000 0.000000 0.000000 0.000000 0.000000 0.000000 10.000000 
L_Toe1_03 0.000000 0.000000 0.000000 0.000000 0.000000 0.000000 10.000000 
L_Toe2_02 0.000000 0.000000 0.000000 0.000000 0.000000 0.000000 10.000000 
L_Toe2_03 0.000000 0.000000 0.000000 0.000000 0.000000 0.000000 10.000000 
L_Toe3_02 0.000000 0.000000 0.000000 0.000000 0.000000 0.000000 10.000000 
L_Toe3_03 0.000000 0.000000 0.000000 0.000000 0.000000 0.000000 10.000000 
planeLockWeightLeft 0.000000 0.000000 0.000000 0.000000 0.000000 0.000000 10.000000 
R_Leg01 0.000000 0.000000 0.000000 0.000000 0.000000 0.000000 10.000000 
R_Leg02 0.000000 0.000000 0.000000 0.000000 0.000000 0.000000 10.000000 
R_Leg03 0.000000 0.000000 0.000000 0.000000 0.000000 0.000000 10.000000 
R_Foot 0.000000 0.000000 0.000000 0.000000 0.000000 0.000000 10.000000 
planeAlignerRight 0.000000 0.000000 0.000000 0.000000 0.000000 0.000000 10.000000 
R_Toe1_01 0.000000 0.000000 0.000000 0.000000 0.000000 0.000000 10.000000 
R_Toe2_01 0.000000 0.000000 0.000000 0.000000 0.000000 0.000000 10.000000 
R_Toe3_01 0.000000 0.000000 0.000000 0.000000 0.000000 0.000000 10.000000 
planeLockWeightRight 0.000000 0.000000 0.000000 0.000000 0.000000 0.000000 10.000000 
R_Toe1_02 0.000000 0.000000 0.000000 0.000000 0.000000 0.000000 10.000000 
R_Toe1_03 0.000000 0.000000 0.000000 0.000000 0.000000 0.000000 10.000000 
R_Toe2_02 0.000000 0.000000 0.000000 0.000000 0.000000 0.000000 10.000000 
R_Toe2_03 0.000000 0.000000 0.000000 0.000000 0.000000 0.000000 10.000000 
R_Toe3_02 0.000000 0.000000 0.000000 0.000000 0.000000 0.000000 10.000000 
R_Toe3_03 0.000000 0.000000 0.000000 0.000000 0.000000 0.000000 10.000000 
Rear_Leg02 0.000000 0.000000 0.000000 0.000000 0.000000 0.000000 10.000000 
Rear_Leg03 0.000000 0.000000 0.000000 0.000000 0.000000 0.000000 10.000000 
Rear_Leg04 0.000000 0.000000 0.000000 0.000000 0.000000 0.000000 10.000000 
Rear_Foot 0.000000 0.000000 0.000000 0.000000 0.000000 0.000000 10.000000 
planeAlignerCenter 0.000000 0.000000 0.000000 0.000000 0.000000 0.000000 10.000000 
Rear_Toe1_01 0.000000 0.000000 0.000000 0.000000 0.000000 0.000000 10.000000 
Rear_Toe2_01 0.000000 0.000000 0.000000 0.000000 0.000000 0.000000 10.000000 
Rear_Toe3_01 0.000000 0.000000 0.000000 0.000000 0.000000 0.000000 10.000000 
planeLockWeightCenter 0.000000 0.000000 0.000000 0.000000 0.000000 0.000000 10.000000 
Rear_Toe1_02 0.000000 0.000000 0.000000 0.000000 0.000000 0.000000 10.000000 
Rear_Toe1_03 0.000000 0.000000 0.000000 0.000000 0.000000 0.000000 10.000000 
Rear_Toe2_02 0.000000 0.000000 0.000000 0.000000 0.000000 0.000000 10.000000 
Rear_Toe2_03 0.000000 0.000000 0.000000 0.000000 0.000000 0.000000 10.000000 
Rear_Toe3_02 0.000000 0.000000 0.000000 0.000000 0.000000 0.000000 10.000000 
Rear_Toe3_03 0.000000 0.000000 0.000000 0.000000 0.000000 0.000000 10.000000 
Back_Bone 0.000000 0.000000 0.000000 0.000000 0.000000 0.000000 10.000000 
Head 0.000000 0.000000 0.000000 0.000000 0.000000 0.000000 10.000000 
Motor_Bone 0.000000 0.000000 0.000000 0.000000 0.000000 0.000000 10.000000 
Ping_Mechanism 0.000000 0.000000 0.000000 0.000000 0.000000 0.000000 10.000000 
BN_LookIK 0.000000 0.000000 0.000000 0.000000 0.000000 0.000000 10.000000 
bottomMouth 0.000000 0.000000 0.000000 0.000000 0.000000 0.000000 10.000000 
L_Mouth01 0.000000 0.000000 0.000000 0.000000 0.000000 0.000000 10.000000 
L_mouthFront 0.000000 0.000000 0.000000 0.000000 0.000000 0.000000 10.000000 
mouthGun 0.000000 0.000000 0.000000 0.000000 0.000000 0.000000 10.000000 
R_Mouth01 0.000000 0.000000 0.000000 0.000000 0.000000 0.000000 10.000000 
R_mouthFront 0.000000 0.000000 0.000000 0.000000 0.000000 0.000000 10.000000 
TopMouth 0.000000 0.000000 0.000000 0.000000 0.000000 0.000000 10.000000 
weapon_bone 0.000000 0.000000 0.000000 0.000000 0.000000 0.000000 10.000000 
#Beginning of Data. Separated by tabs
#Fr	Tx	Ty	Tz	Rx	Ry	Rz	SF
[Pinger_Root]
1 0.000000 0.000000 0.000000 -0.000075 -0.000000 -0.000020 0.000000
2 0.000000 0.000000 0.000000 -0.000075 -0.000000 -0.000020 0.000000
3 0.000000 0.000000 0.000000 -0.000075 -0.000000 -0.000020 0.000000
[Pelvis]
1 -433.166290 1135.739136 3539.553223 -4.226810 -79.283310 -7.897421 3742.455566
2 -437.347870 1135.739258 3537.620117 -4.226810 -79.283310 -7.897421 3741.113770
3 -448.371796 1135.739258 3532.141602 -4.226810 -79.283310 -7.897421 3737.240479
[L_Hip]
1 5.766392 125.831482 872.656799 -170.557617 -57.236065 91.362663 881.701050
2 5.766392 125.831482 872.656799 -170.557617 -57.236065 91.362663 881.701050
3 5.766392 125.831482 872.656799 -170.557617 -57.236065 91.362663 881.701050
[R_Hip]
1 5.765438 125.836372 -872.654907 -20.252176 57.224258 56.276077 881.699829
2 5.765438 125.836372 -872.654907 -20.252176 57.224258 56.276077 881.699829
3 5.765438 125.836372 -872.654907 -20.252176 57.224258 56.276077 881.699829
[Rear_Leg01]
1 -192.298416 -925.602966 -0.001907 -169.680725 20.234182 -112.350212 945.367432
2 -192.298416 -925.602966 -0.001907 -169.555206 20.309191 -112.301765 945.367432
3 -192.298416 -925.602966 -0.001907 -169.429550 20.384096 -112.253105 945.367432
[Spine1]
1 290.604584 5.007505 0.000477 11.419204 -30.248610 12.528488 290.647736
2 290.604584 5.007505 0.000477 11.318385 -30.152130 12.667917 290.647736
3 290.604584 5.007505 0.000477 11.217929 -30.055422 12.807009 290.647736
[L_Leg01]
1 761.932007 -0.002384 -0.069261 26.596172 -17.664740 -66.489777 761.932068
2 761.932007 -0.002384 -0.069261 26.522842 -17.811317 -66.356979 761.932068
3 761.932007 -0.002384 -0.069261 26.449093 -17.957735 -66.223869 761.932068
[L_Leg02]
1 1441.140503 -0.000954 -0.000715 6.510110 2.201516 -120.483238 1441.140503
2 1441.140503 -0.000954 -0.000715 6.536348 2.221601 -120.748413 1441.140503
3 1441.140503 -0.000954 -0.000715 6.600491 2.282225 -121.485786 1441.140503
[L_Leg03]
1 1686.963989 -0.000715 -0.000954 -0.112006 0.068503 140.669052 1686.963989
2 1686.963989 -0.000715 -0.000954 -0.111916 0.068649 140.818649 1686.963989
3 1686.963989 -0.000715 -0.000954 -0.111827 0.068795 140.968262 1686.963989
[L_Foot]
1 3041.570068 -30.715107 11.297464 8.044514 13.452800 52.715424 3041.746094
2 3041.570068 -30.715107 11.297464 8.122180 13.441385 52.825672 3041.746094
3 3041.570068 -30.715107 11.297464 8.370770 13.406470 53.203979 3041.746094
[L_Toe1_01]
1 -188.216690 -224.732346 -21.137953 94.536530 -11.874324 -178.539001 293.899567
2 -188.216690 -224.732346 -21.137953 94.536530 -11.874324 -178.539001 293.899567
3 -188.216690 -224.732346 -21.137953 94.536530 -11.874323 -178.539001 293.899567
[L_Toe2_01]
1 200.746536 -219.926590 148.838394 -89.328217 -33.857212 -48.528934 332.896027
2 200.746536 -219.926590 148.838394 -89.328873 -33.857334 -48.528282 332.896027
3 200.746536 -219.926590 148.838394 -89.329498 -33.857449 -48.527626 332.896027
[L_Toe3_01]
1 188.832520 -219.859131 -191.078659 -97.078224 10.785587 -57.879002 347.140900
2 188.832520 -219.859131 -191.078659 -97.077927 10.785482 -57.878281 347.140900
3 188.832520 -219.859131 -191.078659 -97.077614 10.785377 -57.877556 347.140900
[planeAlignerLeft]
1 0.812531 -811.448792 -0.314951 0.000000 -90.000000 -90.001900 811.449280
2 0.812531 -811.448792 -0.314951 0.000000 -90.000000 -90.001900 811.449280
3 0.812531 -811.448792 -0.314951 0.000000 -90.000000 -90.001900 811.449280
[L_Toe1_02]
1 413.761139 0.000477 0.000000 0.000203 -25.410625 -0.000182 413.761139
2 413.761139 0.000477 0.000000 0.000203 -25.410625 -0.000182 413.761139
3 413.761139 0.000477 0.000000 0.000203 -25.410625 -0.000182 413.761139
[L_Toe1_03]
1 464.317322 0.000358 -0.000089 0.004342 58.635971 0.004342 464.317322
2 464.317322 0.000358 -0.000089 0.004342 58.635971 0.004342 464.317322
3 464.317322 0.000358 -0.000089 0.004342 58.635960 0.004342 464.317322
[L_Toe2_02]
1 342.235809 -0.000477 0.000238 0.001191 -70.156403 0.001191 342.235809
2 342.235809 -0.000477 0.000238 0.001191 -70.156403 0.001191 342.235809
3 342.235809 -0.000477 0.000238 0.001191 -70.156403 0.001191 342.235809
[L_Toe2_03]
1 420.210846 -0.000715 0.000000 0.013353 79.915703 0.013353 420.210846
2 420.210846 -0.000715 0.000000 0.013353 79.915703 0.013353 420.210846
3 420.210846 -0.000715 0.000000 0.013353 79.915680 0.013353 420.210846
[L_Toe3_02]
1 329.270111 0.000954 0.000000 0.001176 -83.130447 0.001176 329.270111
2 329.270111 0.000954 0.000000 0.001176 -83.130447 0.001176 329.270111
3 329.270111 0.000954 0.000000 0.001176 -83.130508 0.001176 329.270111
[L_Toe3_03]
1 439.137451 -0.001907 0.000954 179.990875 65.540901 179.998047 439.137451
2 439.137451 -0.001907 0.000954 179.990875 65.540871 179.998047 439.137451
3 439.137451 -0.001907 0.000954 179.990875 65.540871 179.998047 439.137451
[planeLockWeightLeft]
1 -0.000954 0.000238 -0.000305 -0.011826 -0.004376 0.005620 0.001029
2 -0.000954 0.000238 -0.000305 -0.011826 -0.004376 0.005620 0.001029
3 -0.000954 0.000238 -0.000305 -0.011826 -0.004376 0.005620 0.001029
[R_Leg01]
1 761.455627 -0.001907 -0.000358 67.479362 -9.438896 70.638649 761.455688
2 761.455627 -0.001907 -0.000358 67.412834 -9.382992 70.502716 761.455688
3 761.455627 -0.001907 -0.000358 67.346176 -9.327239 70.366737 761.455688
[R_Leg02]
1 1441.140625 0.000000 -0.000238 -1.227665 -0.587777 -144.797607 1441.140625
2 1441.140625 0.000000 -0.000238 -1.226825 -0.587443 -144.731430 1441.140625
3 1441.140625 0.000000 -0.000238 -1.225984 -0.587110 -144.665268 1441.140625
[R_Leg03]
1 1686.963989 0.000954 0.001431 0.115188 -0.072231 142.371490 1686.963989
2 1686.963989 0.000954 0.001431 0.115185 -0.072237 142.377579 1686.963989
3 1686.963989 0.000954 0.001431 0.115181 -0.072243 142.383667 1686.963989
[R_Foot]
1 3041.560059 -30.531288 -11.204481 7.331189 -46.395638 44.882084 3041.734131
2 3041.560059 -30.531288 -11.204481 7.526734 -46.380043 44.786152 3041.734131
3 3041.560059 -30.531288 -11.204481 7.722180 -46.364197 44.690292 3041.734131
[planeAlignerRight]
1 -0.635147 -812.270569 -0.364304 0.000000 -89.960434 -90.005180 812.270874
2 -0.635147 -812.270569 -0.364304 0.000000 -89.960434 -90.005180 812.270874
3 -0.635147 -812.270569 -0.364304 0.000000 -89.960434 -90.005180 812.270874
[R_Toe1_01]
1 -188.383347 -224.864899 21.052242 58.203983 26.472591 -166.997513 294.101532
2 -188.383347 -224.864899 21.052242 58.204002 26.472631 -166.997482 294.101532
3 -188.383347 -224.864899 21.052242 58.204025 26.472677 -166.997452 294.101532
[R_Toe2_01]
1 200.637817 -220.002121 -148.787384 -55.994591 39.712746 -29.524965 332.857574
2 200.637817 -220.002121 -148.787384 -55.994583 39.712742 -29.524961 332.857574
3 200.637817 -220.002121 -148.787384 -55.994591 39.712746 -29.524965 332.857574
[R_Toe3_01]
1 188.606735 -220.092957 191.126343 -53.843884 11.158207 -73.290077 347.192566
2 188.606735 -220.092957 191.126343 -53.843880 11.158235 -73.290024 347.192566
3 188.606735 -220.092957 191.126343 -53.843884 11.158259 -73.289978 347.192566
[planeLockWeightRight]
1 -0.000477 0.000000 0.000000 -0.011823 -0.004379 -0.000027 0.000477
2 -0.000477 0.000000 0.000000 -0.011823 -0.004379 -0.000027 0.000477
3 -0.000477 0.000000 0.000000 -0.011823 -0.004379 -0.000027 0.000477
[R_Toe1_02]
1 413.762085 0.000477 -0.000119 0.000006 -25.434675 -0.000005 413.762085
2 413.762085 0.000477 -0.000119 0.000006 -25.434675 -0.000005 413.762085
3 413.762085 0.000477 -0.000119 0.000006 -25.434675 -0.000005 413.762085
[R_Toe1_03]
1 464.317810 0.000000 0.001088 0.003184 46.742985 0.003184 464.317810
2 464.317810 0.000000 0.001088 0.003184 46.742931 0.003184 464.317810
3 464.317810 0.000000 0.001088 0.003184 46.742867 0.003184 464.317810
[R_Toe2_02]
1 342.234741 -0.000954 0.000238 0.001235 -53.660015 0.001235 342.234741
2 342.234741 -0.000954 0.000238 0.001235 -53.660015 0.001235 342.234741
3 342.234741 -0.000954 0.000238 0.001235 -53.660015 0.001235 342.234741
[R_Toe2_03]
1 420.210846 0.000715 -0.000268 -0.003602 51.671577 0.000100 420.210846
2 420.210846 0.000715 -0.000268 -0.003602 51.671577 0.000100 420.210846
3 420.210846 0.000715 -0.000268 -0.003602 51.671562 0.000100 420.210846
[R_Toe3_02]
1 329.270355 -0.000477 -0.000954 -0.002373 -66.445053 -0.002373 329.270355
2 329.270355 -0.000477 -0.000954 -0.002373 -66.445023 -0.002373 329.270355
3 329.270355 -0.000477 -0.000954 -0.002373 -66.445053 -0.002373 329.270355
[R_Toe3_03]
1 439.137939 0.000238 0.001431 0.005869 66.928558 0.005869 439.137939
2 439.137939 0.000238 0.001431 0.005869 66.928535 0.005869 439.137939
3 439.137939 0.000238 0.001431 0.005869 66.928558 0.005869 439.137939
[Rear_Leg02]
1 1162.777710 -0.029802 0.005960 -6.392669 12.170720 -97.404236 1162.777710
2 1162.777710 -0.029802 0.005960 -5.989514 11.412906 -97.362953 1162.777710
3 1162.777710 -0.029802 0.005960 -4.927353 9.386718 -97.276802 1162.777710
[Rear_Leg03]
1 607.192505 -0.013351 -0.073195 0.010399 -0.005293 70.305580 607.192505
2 607.192505 -0.013351 -0.073195 0.010396 -0.005299 70.371201 607.192505
3 607.192505 -0.013351 -0.073195 0.010393 -0.005305 70.436829 607.192505
[Rear_Leg04]
1 995.874512 -0.020504 -0.011921 -0.040808 -0.017427 71.112114 995.874573
2 995.874512 -0.020504 -0.011921 -0.040821 -0.017397 71.195267 995.874573
3 995.874512 -0.020504 -0.011921 -0.040833 -0.017368 71.278427 995.874573
[Rear_Foot]
1 3096.176270 -0.067472 -0.041425 39.856567 72.023155 -131.707962 3096.176270
2 3096.176270 -0.067472 -0.041425 38.827187 72.778778 -132.692795 3096.176270
3 3096.176270 -0.067472 -0.041425 35.586391 74.762970 -135.805908 3096.176270
[planeAlignerCenter]
1 0.350077 0.966311 -838.790894 0.000009 0.000003 -179.999985 838.791565
2 0.350077 0.966311 -838.790894 0.000009 0.000003 -179.999985 838.791565
3 0.350077 0.966311 -838.790894 0.000009 0.000003 -179.999985 838.791565
[Rear_Toe1_01]
1 0.653352 83.966492 -371.173737 5.379987 30.461653 103.607674 380.553192
2 0.653352 83.966492 -371.173737 5.379838 30.461746 103.607086 380.553192
3 0.653352 83.966492 -371.173737 5.379697 30.461845 103.606522 380.553192
[Rear_Toe2_01]
1 178.200760 -294.826019 -362.060547 -8.741129 22.951086 -73.397560 499.765686
2 178.200760 -294.826019 -362.060547 -8.741099 22.951132 -73.397072 499.765686
3 178.200760 -294.826019 -362.060547 -8.741070 22.951174 -73.396568 499.765686
[Rear_Toe3_01]
1 -153.359680 -308.780914 -362.060852 3.772577 19.496872 -119.572105 499.952881
2 -153.359680 -308.780914 -362.060852 3.772631 19.496841 -119.572037 499.952881
3 -153.359680 -308.780914 -362.060852 3.772687 19.496820 -119.571968 499.952881
[planeLockWeightCenter]
1 -0.000062 0.000238 0.000000 -0.011814 -0.004373 -0.000015 0.000246
2 -0.000062 0.000238 0.000000 -0.011814 -0.004373 -0.000015 0.000246
3 -0.000062 0.000238 0.000000 -0.011814 -0.004373 -0.000015 0.000246
[Rear_Toe1_02]
1 379.707825 0.194073 0.000477 -0.000337 -32.964039 0.006987 379.707855
2 379.707825 0.194073 0.000477 -0.000337 -32.964947 0.006987 379.707855
3 379.707825 0.194073 0.000477 -0.000337 -32.965843 0.006987 379.707855
[Rear_Toe1_03]
1 500.129700 0.165701 0.000119 -0.004070 60.568069 -0.000455 500.129761
2 500.129700 0.165701 0.000119 -0.004070 60.568233 -0.000455 500.129761
3 500.129700 0.165701 0.000119 -0.004070 60.568424 -0.000455 500.129761
[Rear_Toe2_02]
1 340.494507 0.000238 -0.000954 0.001179 -79.094398 0.001179 340.494507
2 340.494507 0.000238 -0.000954 0.001179 -79.094398 0.001179 340.494507
3 340.494507 0.000238 -0.000954 0.001179 -79.094398 0.001179 340.494507
[Rear_Toe2_03]
1 433.103577 0.000000 0.000238 0.031673 85.752869 0.031673 433.103546
2 433.103577 0.000000 0.000238 0.031673 85.752777 0.031673 433.103546
3 433.103577 0.000000 0.000238 0.031673 85.752869 0.031673 433.103546
[Rear_Toe3_02]
1 340.494141 -0.000358 -0.000477 -0.002471 -50.096046 -0.002471 340.494171
2 340.494141 -0.000358 -0.000477 -0.002471 -50.096046 -0.002471 340.494171
3 340.494141 -0.000358 -0.000477 -0.002471 -50.096046 -0.002471 340.494171
[Rear_Toe3_03]
1 433.103577 0.001431 -0.000238 0.000412 44.441471 -0.003381 433.103546
2 433.103577 0.001431 -0.000238 0.000412 44.441525 -0.003381 433.103546
3 433.103577 0.001431 -0.000238 0.000412 44.441574 -0.003381 433.103546
[Back_Bone]
1 1312.175781 -701.934692 0.000954 14.436758 2.868636 -96.602402 1488.125488
2 1312.175781 -701.934692 0.000954 14.258877 2.820695 -96.420555 1488.125488
3 1312.175781 -701.934692 0.000954 13.766362 2.686326 -95.904648 1488.125488
[Head]
1 1406.159424 809.709290 0.001431 8.035080 15.972830 39.967159 1622.625488
2 1406.159424 809.709290 0.001431 7.854849 15.875735 40.010872 1622.625488
3 1406.159424 809.709290 0.001431 7.674624 15.778767 40.054867 1622.625488
[Motor_Bone]
1 1158.364380 -417.834747 0.000477 -0.000105 0.000046 -105.985291 1231.419434
2 1158.364380 -417.834747 0.000477 -0.000105 0.000046 -105.985291 1231.419434
3 1158.364380 -417.834747 0.000477 -0.000105 0.000046 -105.985291 1231.419434
[Ping_Mechanism]
1 1203.033447 -400.093689 42.537842 0.000103 -0.000053 82.120995 1268.532227
2 1203.537476 -400.581726 43.028908 0.000103 -0.000053 82.120995 1269.180664
3 1204.041504 -401.069763 43.519974 0.000103 -0.000053 82.120995 1269.829468
[BN_LookIK]
1 193.241119 1380.371704 -0.002861 0.000000 89.965736 -31.038179 1393.832153
2 193.241119 1380.371704 -0.002861 0.000000 89.965736 -31.038179 1393.832153
3 193.241119 1380.371704 -0.002861 0.000000 89.965736 -31.038179 1393.832153
[bottomMouth]
1 -435.092926 615.759399 -0.000954 -0.000022 0.000016 73.527184 753.966492
2 -435.092926 615.759399 -0.000954 -0.000022 0.000016 73.527184 753.966492
3 -435.092926 615.759399 -0.000954 -0.000022 0.000016 73.527184 753.966492
[L_Mouth01]
1 554.440979 7.658243 838.222046 150.204178 23.759130 109.605339 1005.027161
2 554.440979 7.658243 838.222046 150.204178 23.759130 109.605339 1005.027161
3 554.440979 7.658243 838.222046 150.204178 23.759130 109.605339 1005.027161
[L_mouthFront]
1 551.629089 934.514771 339.150421 0.000081 2.804060 79.119301 1136.941284
2 551.629089 934.514771 339.150421 0.000081 2.804060 79.119301 1136.941284
3 551.629089 934.514771 339.150421 0.000081 2.804060 79.119301 1136.941284
[mouthGun]
1 55.332661 1627.420898 0.000000 0.000023 0.000009 -11.038128 1628.361328
2 55.332661 1627.420898 0.000000 0.000023 0.000009 -11.038128 1628.361328
3 55.332661 1627.420898 0.000000 0.000023 0.000009 -11.038128 1628.361328
[R_Mouth01]
1 554.442383 7.659197 -838.223938 29.795891 -23.759109 109.605331 1005.029541
2 554.442383 7.659197 -838.223938 29.795891 -23.759109 109.605331 1005.029541
3 554.442383 7.659197 -838.223938 29.795891 -23.759109 109.605331 1005.029541
[R_mouthFront]
1 551.629089 934.514282 -339.151367 0.000029 -2.803930 79.119133 1136.941162
2 551.629089 934.514282 -339.151367 0.000029 -2.803930 79.119133 1136.941162
3 551.629089 934.514282 -339.151367 0.000029 -2.803930 79.119133 1136.941162
[TopMouth]
1 461.269867 -56.106091 -0.008583 -0.000059 -0.000268 92.025169 464.669525
2 461.269867 -56.106091 -0.008583 -0.000059 -0.000268 92.025169 464.669525
3 461.269867 -56.106091 -0.008583 -0.000059 -0.000268 92.025169 464.669525
[weapon_bone]
1 -987.239868 1448.372803 0.001431 0.000000 89.965736 -31.038221 1752.833740
2 -987.239868 1448.372803 0.001431 0.000000 89.965736 -31.038221 1752.833740
3 -987.239868 1448.372803 0.001431 0.000000 89.965736 -31.038221 1752.833740
